<svg width="170" height="170" viewBox="0 0 170 170" fill="none" xmlns="http://www.w3.org/2000/svg">
<path d="M84.7671 169.515C131.583 169.515 169.534 131.568 169.534 84.7577C169.534 37.9473 131.583 0 84.7671 0C37.9515 0 0 37.9473 0 84.7577C0 131.568 37.9515 169.515 84.7671 169.515Z" fill="#12D195"/>
<path d="M67.3866 61.6923C75.3879 61.6923 81.8743 55.2067 81.8743 47.2062C81.8743 39.2057 75.3879 32.7201 67.3866 32.7201C59.3852 32.7201 52.8988 39.2057 52.8988 47.2062C52.8988 55.2067 59.3852 61.6923 67.3866 61.6923Z" fill="white"/>
<path d="M102.139 61.6923C110.141 61.6923 116.627 55.2067 116.627 47.2062C116.627 39.2057 110.141 32.7201 102.139 32.7201C94.138 32.7201 87.6516 39.2057 87.6516 47.2062C87.6516 55.2067 94.138 61.6923 102.139 61.6923Z" fill="white"/>
<path d="M67.3867 99.2438C75.3881 99.2438 81.8744 92.7581 81.8744 84.7577C81.8744 76.7572 75.3881 70.2715 67.3867 70.2715C59.3854 70.2715 52.899 76.7572 52.899 84.7577C52.899 92.7581 59.3854 99.2438 67.3867 99.2438Z" fill="white"/>
<path d="M102.139 73.7179C104.323 73.7179 106.458 74.3654 108.273 75.5784C110.089 76.7915 111.504 78.5157 112.34 80.5329C113.176 82.5502 113.394 84.7699 112.968 86.9114C112.542 89.0529 111.491 91.02 109.946 92.564C108.402 94.1079 106.435 95.1593 104.293 95.5853C102.152 96.0113 99.9316 95.7927 97.9141 94.9571C95.8966 94.1215 94.1723 92.7065 92.9591 90.891C91.7459 89.0755 91.0984 86.9411 91.0984 84.7577C91.1027 81.8311 92.2673 79.0256 94.3369 76.9561C96.4066 74.8867 99.2124 73.7222 102.139 73.7179ZM102.139 70.2715C99.2739 70.2715 96.4729 71.1211 94.0904 72.7129C91.7079 74.3047 89.851 76.5671 88.7544 79.2141C87.6579 81.8611 87.371 84.7737 87.93 87.5838C88.489 90.3938 89.8688 92.975 91.895 95.0009C93.9211 97.0268 96.5026 98.4065 99.3129 98.9655C102.123 99.5244 105.036 99.2375 107.684 98.1411C110.331 97.0447 112.594 95.188 114.185 92.8057C115.777 90.4235 116.627 87.6228 116.627 84.7577C116.621 80.9199 115.091 77.2416 112.375 74.5302C109.659 71.8188 105.977 70.296 102.139 70.296V70.2715Z" fill="white"/>
<path d="M67.3867 111.261C69.5727 111.26 71.7101 111.906 73.5283 113.12C75.3466 114.333 76.7641 116.058 77.6014 118.078C78.4387 120.097 78.6582 122.319 78.2321 124.463C77.806 126.606 76.7535 128.576 75.2078 130.121C73.662 131.667 71.6925 132.719 69.5484 133.145C67.4044 133.571 65.1821 133.352 63.1628 132.515C61.1435 131.677 59.4179 130.26 58.2044 128.442C56.991 126.624 56.3441 124.487 56.3457 122.301C56.35 119.374 57.5147 116.569 59.5843 114.499C61.654 112.43 64.4598 111.266 67.3867 111.261ZM67.3867 107.815C64.519 107.813 61.7152 108.662 59.3302 110.254C56.9451 111.846 55.0858 114.11 53.9877 116.759C52.8895 119.407 52.6018 122.322 53.1608 125.135C53.7199 127.947 55.1007 130.531 57.1284 132.558C59.1562 134.586 61.7399 135.966 64.5525 136.525C67.3652 137.084 70.2805 136.797 72.9297 135.699C75.5788 134.601 77.8426 132.741 79.4348 130.357C81.0271 127.972 81.8761 125.168 81.8744 122.301C81.8744 118.459 80.3481 114.774 77.6311 112.058C74.9141 109.341 71.2291 107.815 67.3867 107.815Z" fill="white"/>
<path d="M102.139 111.261C104.325 111.26 106.463 111.906 108.281 113.12C110.099 114.333 111.517 116.058 112.354 118.078C113.191 120.097 113.411 122.319 112.985 124.463C112.559 126.606 111.506 128.576 109.96 130.121C108.415 131.667 106.445 132.719 104.301 133.145C102.157 133.571 99.9347 133.352 97.9154 132.515C95.8961 131.677 94.1706 130.26 92.9571 128.442C91.7436 126.624 91.0968 124.487 91.0984 122.301C91.1027 119.374 92.2673 116.569 94.337 114.499C96.4066 112.43 99.2124 111.266 102.139 111.261ZM102.139 107.815C99.2716 107.813 96.4679 108.662 94.0828 110.254C91.6977 111.846 89.8385 114.11 88.7403 116.759C87.6422 119.407 87.3544 122.322 87.9135 125.135C88.4725 127.947 89.8533 130.531 91.8811 132.558C93.9088 134.586 96.4925 135.966 99.3052 136.525C102.118 137.084 105.033 136.797 107.682 135.699C110.331 134.601 112.595 132.741 114.187 130.357C115.78 127.972 116.629 125.168 116.627 122.301C116.627 118.459 115.101 114.774 112.384 112.058C109.667 109.341 105.982 107.815 102.139 107.815Z" fill="white"/>
</svg>
