<svg width="220" height="27" viewBox="0 0 220 27" fill="none" xmlns="http://www.w3.org/2000/svg">
<path d="M0.844727 7.86788C0.844727 6.58092 1.05875 5.48322 1.48678 4.57478C1.94 3.64111 2.54429 2.88407 3.29965 2.30368C4.05501 1.69805 4.93627 1.25645 5.94341 0.978868C6.97574 0.701289 8.07101 0.5625 9.22924 0.5625C11.0925 0.5625 12.4647 0.814844 13.346 1.31953C14.2272 1.79899 14.6678 2.63173 14.6678 3.81775C14.6678 4.32244 14.5545 4.77666 14.3279 5.18041C14.1265 5.58416 13.8999 5.88697 13.6481 6.08885C13.1697 5.96268 12.6661 5.86174 12.1374 5.78604C11.6338 5.6851 11.0421 5.63463 10.3623 5.63463C9.27959 5.63463 8.43611 5.82389 7.83182 6.20241C7.22753 6.55569 6.92538 7.18655 6.92538 8.09499V9.30625H13.1193C13.2704 9.58383 13.4089 9.93711 13.5348 10.3661C13.6859 10.7698 13.7614 11.2241 13.7614 11.7288C13.7614 12.612 13.56 13.2554 13.1571 13.6592C12.7794 14.0377 12.2633 14.227 11.6086 14.227H7.2653V26.226C7.01351 26.3017 6.61065 26.3774 6.05672 26.4531C5.52797 26.5288 4.97403 26.5666 4.39492 26.5666C3.84099 26.5666 3.33742 26.5288 2.8842 26.4531C2.45616 26.3774 2.09107 26.226 1.78893 25.9989C1.48678 25.7717 1.24759 25.4689 1.07134 25.0904C0.920263 24.6867 0.844727 24.1694 0.844727 23.5385V7.86788Z" fill="#ffffff"/>
<path d="M25.8557 26.8694C24.3702 26.8694 22.9854 26.6676 21.7013 26.2638C20.4423 25.8348 19.3345 25.204 18.3777 24.3712C17.446 23.5385 16.7033 22.4913 16.1493 21.2295C15.6206 19.9678 15.3562 18.4916 15.3562 16.8009C15.3562 15.1354 15.6206 13.7097 16.1493 12.5236C16.7033 11.3124 17.4209 10.3282 18.3021 9.57121C19.1834 8.78894 20.1905 8.22116 21.3236 7.86788C22.4566 7.48936 23.6148 7.3001 24.7982 7.3001C26.1327 7.3001 27.3413 7.50198 28.424 7.90573C29.5318 8.30948 30.476 8.86464 31.2566 9.57121C32.0623 10.2778 32.6792 11.1231 33.1072 12.1073C33.5604 13.0914 33.787 14.1639 33.787 15.3247C33.787 16.1826 33.5478 16.8387 33.0694 17.293C32.591 17.7472 31.9238 18.0374 31.0677 18.1635L21.739 19.5641C22.016 20.3968 22.5825 21.0277 23.4386 21.4566C24.2947 21.8604 25.2766 22.0623 26.3845 22.0623C27.4168 22.0623 28.3862 21.9361 29.2926 21.6838C30.2242 21.4062 30.9796 21.0907 31.5587 20.7375C31.9616 20.9898 32.3015 21.3431 32.5784 21.7973C32.8554 22.2515 32.9939 22.731 32.9939 23.2357C32.9939 24.3712 32.4651 25.2166 31.4076 25.7717C30.6019 26.2007 29.6955 26.4909 28.6883 26.6423C27.6812 26.7937 26.737 26.8694 25.8557 26.8694ZM24.7982 11.9937C24.1939 11.9937 23.6652 12.0947 23.212 12.2965C22.7839 12.4984 22.4314 12.7634 22.1545 13.0914C21.8775 13.3942 21.6635 13.7475 21.5124 14.1513C21.3865 14.5298 21.311 14.9209 21.2858 15.3247L27.7441 14.2648C27.6686 13.7601 27.3916 13.2554 26.9132 12.7508C26.4348 12.2461 25.7298 11.9937 24.7982 11.9937Z" fill="#ffffff"/>
<path d="M44.7333 22.1758C45.1613 22.1758 45.6271 22.138 46.1307 22.0623C46.6594 21.9613 47.0497 21.8352 47.3015 21.6838V18.6556L44.5822 18.8827C43.8772 18.9332 43.2981 19.0846 42.8449 19.3369C42.3917 19.5893 42.165 19.9678 42.165 20.4725C42.165 20.9772 42.3539 21.3936 42.7316 21.7216C43.1344 22.0244 43.8017 22.1758 44.7333 22.1758ZM44.4311 7.3001C45.7908 7.3001 47.0245 7.43889 48.1324 7.71647C49.2654 7.99405 50.2222 8.42304 51.0028 9.00343C51.8085 9.55859 52.4254 10.2778 52.8534 11.161C53.2814 12.019 53.4955 13.0409 53.4955 14.227V22.7058C53.4955 23.3618 53.3066 23.9044 52.9289 24.3334C52.5764 24.7371 52.1484 25.0904 51.6448 25.3932C50.0082 26.3774 47.7044 26.8694 44.7333 26.8694C43.3988 26.8694 42.1902 26.7433 41.1075 26.4909C40.05 26.2386 39.131 25.8601 38.3505 25.3554C37.5951 24.8507 37.0034 24.2072 36.5754 23.4249C36.1725 22.6427 35.9711 21.7342 35.9711 20.6996C35.9711 18.9584 36.4872 17.621 37.5196 16.6873C38.5519 15.7537 40.1507 15.1733 42.3161 14.9462L47.2637 14.4162V14.1513C47.2637 13.4195 46.9364 12.9022 46.2818 12.5993C45.6523 12.2713 44.7333 12.1073 43.5247 12.1073C42.5679 12.1073 41.6363 12.2082 40.7299 12.4101C39.8234 12.612 39.0051 12.8643 38.2749 13.1671C37.9476 12.94 37.6706 12.5993 37.444 12.1451C37.2174 11.6657 37.1041 11.1736 37.1041 10.6689C37.1041 10.0128 37.2552 9.4955 37.5573 9.11699C37.8847 8.71323 38.3756 8.37257 39.0303 8.09499C39.7605 7.81741 40.6166 7.61553 41.5985 7.48936C42.6057 7.36319 43.5499 7.3001 44.4311 7.3001Z" fill="#ffffff"/>
<path d="M63.8418 19.9426C63.8418 20.5987 64.0433 21.0655 64.4461 21.3431C64.8742 21.6207 65.4659 21.7595 66.2212 21.7595C66.5989 21.7595 66.9892 21.7342 67.392 21.6838C67.7949 21.6081 68.1474 21.5197 68.4495 21.4188C68.6762 21.6964 68.865 22.0118 69.0161 22.3651C69.1923 22.6931 69.2804 23.0969 69.2804 23.5763C69.2804 24.5353 68.9154 25.3175 68.1852 25.9231C67.4802 26.5288 66.2212 26.8316 64.4084 26.8316C62.1926 26.8316 60.4805 26.3269 59.2719 25.3175C58.0885 24.3081 57.4968 22.6679 57.4968 20.3968V4.19626C57.7738 4.12056 58.164 4.04486 58.6676 3.96915C59.1964 3.86822 59.7503 3.81775 60.3294 3.81775C61.4373 3.81775 62.2934 4.01962 62.8976 4.42337C63.5271 4.80189 63.8418 5.62201 63.8418 6.88373V9.30625H68.7895C68.9405 9.58383 69.079 9.93711 69.2049 10.3661C69.356 10.7698 69.4315 11.2241 69.4315 11.7288C69.4315 12.612 69.2301 13.2554 68.8272 13.6592C68.4495 14.0377 67.9334 14.227 67.2787 14.227H63.8418V19.9426Z" fill="#ffffff"/>
<path d="M90.6719 26.226C90.4201 26.3017 90.0173 26.3774 89.4633 26.4531C88.9346 26.5288 88.3807 26.5666 87.8016 26.5666C87.2476 26.5666 86.744 26.5288 86.2908 26.4531C85.8628 26.3774 85.4977 26.226 85.1955 25.9989C84.8934 25.7717 84.6542 25.4689 84.478 25.0904C84.3269 24.6867 84.2514 24.1694 84.2514 23.5385V15.1354C84.2514 14.1008 83.987 13.3816 83.4582 12.9779C82.9547 12.5489 82.3252 12.3344 81.5698 12.3344C81.0662 12.3344 80.5879 12.3975 80.1346 12.5236C79.6814 12.6498 79.3163 12.8012 79.0394 12.9779V26.226C78.7876 26.3017 78.3847 26.3774 77.8308 26.4531C77.302 26.5288 76.7481 26.5666 76.169 26.5666C75.6151 26.5666 75.1115 26.5288 74.6583 26.4531C74.2302 26.3774 73.8651 26.226 73.563 25.9989C73.2608 25.7717 73.0217 25.4689 72.8454 25.0904C72.6943 24.6867 72.6188 24.1694 72.6188 23.5385V1.5845C72.8958 1.53403 73.2986 1.47094 73.8274 1.39524C74.3813 1.2943 74.9352 1.24383 75.4892 1.24383C76.0431 1.24383 76.5341 1.28168 76.9621 1.35738C77.4153 1.43309 77.793 1.5845 78.0952 1.81161C78.3973 2.03872 78.6239 2.35415 78.775 2.7579C78.9512 3.13642 79.0394 3.64111 79.0394 4.27197V7.98144C79.3667 7.85526 79.8577 7.71647 80.5123 7.56507C81.1921 7.38842 81.9349 7.3001 82.7406 7.3001C85.2333 7.3001 87.1721 7.93097 88.5569 9.19269C89.9669 10.4292 90.6719 12.2839 90.6719 14.7569V26.226Z" fill="#ffffff"/>
<path d="M104.342 26.8694C102.857 26.8694 101.472 26.6676 100.188 26.2638C98.9291 25.8348 97.8212 25.204 96.8644 24.3712C95.9328 23.5385 95.19 22.4913 94.6361 21.2295C94.1073 19.9678 93.843 18.4916 93.843 16.8009C93.843 15.1354 94.1073 13.7097 94.6361 12.5236C95.19 11.3124 95.9076 10.3282 96.7889 9.57121C97.6701 8.78894 98.6773 8.22116 99.8103 7.86788C100.943 7.48936 102.102 7.3001 103.285 7.3001C104.619 7.3001 105.828 7.50198 106.911 7.90573C108.019 8.30948 108.963 8.86464 109.743 9.57121C110.549 10.2778 111.166 11.1231 111.594 12.1073C112.047 13.0914 112.274 14.1639 112.274 15.3247C112.274 16.1826 112.035 16.8387 111.556 17.293C111.078 17.7472 110.411 18.0374 109.554 18.1635L100.226 19.5641C100.503 20.3968 101.069 21.0277 101.925 21.4566C102.781 21.8604 103.763 22.0623 104.871 22.0623C105.904 22.0623 106.873 21.9361 107.779 21.6838C108.711 21.4062 109.466 21.0907 110.045 20.7375C110.448 20.9898 110.788 21.3431 111.065 21.7973C111.342 22.2515 111.481 22.731 111.481 23.2357C111.481 24.3712 110.952 25.2166 109.894 25.7717C109.089 26.2007 108.182 26.4909 107.175 26.6423C106.168 26.7937 105.224 26.8694 104.342 26.8694ZM103.285 11.9937C102.681 11.9937 102.152 12.0947 101.699 12.2965C101.271 12.4984 100.918 12.7634 100.641 13.0914C100.364 13.3942 100.15 13.7475 99.9992 14.1513C99.8733 14.5298 99.7977 14.9209 99.7725 15.3247L106.231 14.2648C106.155 13.7601 105.878 13.2554 105.4 12.7508C104.922 12.2461 104.217 11.9937 103.285 11.9937Z" fill="#ffffff"/>
<path d="M121.785 26.226C121.533 26.3017 121.13 26.3774 120.576 26.4531C120.047 26.5288 119.494 26.5666 118.914 26.5666C118.361 26.5666 117.857 26.5288 117.404 26.4531C116.976 26.3774 116.611 26.226 116.308 25.9989C116.006 25.7717 115.767 25.4689 115.591 25.0904C115.44 24.6867 115.364 24.1694 115.364 23.5385V12.183C115.364 11.6026 115.465 11.1105 115.666 10.7068C115.893 10.2778 116.208 9.89925 116.611 9.57121C117.013 9.24316 117.504 8.95296 118.084 8.70062C118.688 8.42304 119.33 8.18331 120.01 7.98144C120.69 7.77956 121.395 7.62815 122.125 7.52721C122.855 7.40104 123.585 7.33796 124.315 7.33796C125.524 7.33796 126.481 7.57768 127.186 8.05714C127.891 8.51136 128.243 9.26839 128.243 10.3282C128.243 10.6815 128.193 11.0348 128.092 11.3881C127.991 11.7161 127.865 12.019 127.714 12.2965C127.186 12.2965 126.644 12.3218 126.09 12.3722C125.536 12.4227 124.995 12.4984 124.466 12.5993C123.938 12.7003 123.434 12.8138 122.956 12.94C122.502 13.0409 122.112 13.1671 121.785 13.3185V26.226Z" fill="#ffffff"/>
<path d="M141.87 25.696C141.518 25.9989 141.039 26.2386 140.435 26.4152C139.831 26.6171 139.113 26.718 138.282 26.718C137.25 26.718 136.356 26.5666 135.601 26.2638C134.845 25.9862 134.342 25.5825 134.09 25.0526C133.813 24.4469 133.486 23.488 133.108 22.1758C132.755 20.8636 132.403 19.4253 132.05 17.8607C131.698 16.2962 131.358 14.7064 131.031 13.0914C130.728 11.4764 130.489 10.0507 130.313 8.81417C130.666 8.46089 131.131 8.15808 131.71 7.90573C132.315 7.62815 132.969 7.48936 133.674 7.48936C134.556 7.48936 135.273 7.69124 135.827 8.09499C136.406 8.47351 136.759 9.14222 136.885 10.1011C137.136 12.019 137.35 13.6087 137.527 14.8704C137.703 16.1069 137.841 17.1289 137.942 17.9364C138.068 18.7187 138.156 19.3243 138.207 19.7533C138.282 20.1571 138.345 20.4851 138.395 20.7375H138.546C138.622 20.3337 138.748 19.7533 138.924 18.9963C139.126 18.214 139.352 17.3308 139.604 16.3467C139.856 15.3625 140.12 14.3027 140.397 13.1671C140.674 12.0063 140.951 10.8582 141.228 9.72261C141.732 9.44503 142.223 9.23054 142.701 9.07913C143.205 8.92773 143.821 8.85203 144.552 8.85203C145.433 8.85203 146.188 8.99082 146.818 9.26839C147.447 9.54597 147.85 9.97496 148.026 10.5554C148.328 11.6657 148.618 12.7508 148.895 13.8106C149.172 14.8452 149.424 15.8167 149.65 16.7252C149.877 17.6084 150.078 18.4033 150.255 19.1098C150.431 19.7912 150.557 20.3337 150.632 20.7375H150.821C151.098 18.7944 151.362 16.7757 151.614 14.6812C151.891 12.5867 152.143 10.4544 152.37 8.28425C152.823 8.00667 153.301 7.80479 153.805 7.67862C154.308 7.55245 154.812 7.48936 155.316 7.48936C156.197 7.48936 156.927 7.67862 157.506 8.05714C158.085 8.43566 158.375 9.09175 158.375 10.0254C158.375 10.4292 158.312 11.0348 158.186 11.8423C158.06 12.6498 157.896 13.5583 157.695 14.5676C157.493 15.577 157.254 16.6369 156.977 17.7472C156.726 18.8575 156.461 19.93 156.184 20.9646C155.932 21.9992 155.681 22.9329 155.429 23.7656C155.202 24.5983 155.001 25.2418 154.825 25.696C154.472 25.9989 153.931 26.2386 153.2 26.4152C152.47 26.6171 151.69 26.718 150.859 26.718C148.744 26.718 147.498 26.1881 147.12 25.1283C146.969 24.674 146.78 24.1063 146.553 23.4249C146.327 22.7184 146.087 21.9487 145.836 21.116C145.584 20.2832 145.345 19.4253 145.118 18.5421C144.892 17.6336 144.703 16.763 144.552 15.9303C144.375 16.8135 144.161 17.7346 143.91 18.6935C143.658 19.6271 143.393 20.5482 143.116 21.4566C142.865 22.3399 142.625 23.16 142.399 23.917C142.172 24.6488 141.996 25.2418 141.87 25.696Z" fill="#ffffff"/>
<path d="M170.99 26.8694C169.504 26.8694 168.119 26.6676 166.835 26.2638C165.576 25.8348 164.469 25.204 163.512 24.3712C162.58 23.5385 161.837 22.4913 161.283 21.2295C160.755 19.9678 160.49 18.4916 160.49 16.8009C160.49 15.1354 160.755 13.7097 161.283 12.5236C161.837 11.3124 162.555 10.3282 163.436 9.57121C164.317 8.78894 165.325 8.22116 166.458 7.86788C167.591 7.48936 168.749 7.3001 169.932 7.3001C171.267 7.3001 172.475 7.50198 173.558 7.90573C174.666 8.30948 175.61 8.86464 176.391 9.57121C177.196 10.2778 177.813 11.1231 178.241 12.1073C178.695 13.0914 178.921 14.1639 178.921 15.3247C178.921 16.1826 178.682 16.8387 178.204 17.293C177.725 17.7472 177.058 18.0374 176.202 18.1635L166.873 19.5641C167.15 20.3968 167.717 21.0277 168.573 21.4566C169.429 21.8604 170.411 22.0623 171.519 22.0623C172.551 22.0623 173.52 21.9361 174.427 21.6838C175.358 21.4062 176.114 21.0907 176.693 20.7375C177.096 20.9898 177.436 21.3431 177.713 21.7973C177.99 22.2515 178.128 22.731 178.128 23.2357C178.128 24.3712 177.599 25.2166 176.542 25.7717C175.736 26.2007 174.83 26.4909 173.822 26.6423C172.815 26.7937 171.871 26.8694 170.99 26.8694ZM169.932 11.9937C169.328 11.9937 168.799 12.0947 168.346 12.2965C167.918 12.4984 167.566 12.7634 167.289 13.0914C167.012 13.3942 166.798 13.7475 166.646 14.1513C166.521 14.5298 166.445 14.9209 166.42 15.3247L172.878 14.2648C172.803 13.7601 172.526 13.2554 172.047 12.7508C171.569 12.2461 170.864 11.9937 169.932 11.9937Z" fill="#ffffff"/>
<path d="M182.087 1.62235C182.339 1.54664 182.742 1.47094 183.296 1.39524C183.85 1.2943 184.416 1.24383 184.995 1.24383C185.549 1.24383 186.04 1.28168 186.468 1.35738C186.921 1.43309 187.299 1.5845 187.601 1.81161C187.903 2.03872 188.13 2.35415 188.281 2.7579C188.432 3.13642 188.508 3.64111 188.508 4.27197V7.98144C189.137 7.72909 189.729 7.55245 190.283 7.45151C190.862 7.35057 191.491 7.3001 192.171 7.3001C193.38 7.3001 194.525 7.5146 195.608 7.94358C196.691 8.37257 197.648 9.00343 198.478 9.83617C199.309 10.6437 199.964 11.6531 200.442 12.8643C200.921 14.0756 201.16 15.4761 201.16 17.0658C201.16 18.7061 200.908 20.1445 200.405 21.3809C199.926 22.5922 199.246 23.6016 198.365 24.4091C197.484 25.2166 196.401 25.8348 195.117 26.2638C193.858 26.6676 192.461 26.8694 190.925 26.8694C189.263 26.8694 187.853 26.6676 186.695 26.2638C185.537 25.8853 184.555 25.4058 183.749 24.8254C182.641 24.0432 182.087 23.0338 182.087 21.7973V1.62235ZM190.925 21.7973C192.083 21.7973 192.977 21.4062 193.606 20.6239C194.261 19.8164 194.588 18.6304 194.588 17.0658C194.588 15.4761 194.261 14.2901 193.606 13.5078C192.952 12.7255 192.071 12.3344 190.963 12.3344C190.459 12.3344 190.018 12.3849 189.641 12.4858C189.288 12.5867 188.898 12.7381 188.47 12.94V21.1917C188.747 21.3683 189.074 21.5197 189.452 21.6459C189.855 21.7468 190.346 21.7973 190.925 21.7973Z" fill="#ffffff"/>
<path d="M219.774 20.7753C219.774 22.6931 219.056 24.1946 217.621 25.2797C216.186 26.3648 214.071 26.9073 211.276 26.9073C210.218 26.9073 209.236 26.8316 208.33 26.6802C207.424 26.5288 206.643 26.3017 205.988 25.9989C205.359 25.6708 204.855 25.2671 204.478 24.7876C204.125 24.3081 203.949 23.7404 203.949 23.0843C203.949 22.4786 204.075 21.974 204.327 21.5702C204.578 21.1412 204.881 20.7879 205.233 20.5104C205.963 20.9141 206.794 21.28 207.726 21.6081C208.683 21.9109 209.778 22.0623 211.012 22.0623C211.792 22.0623 212.384 21.9487 212.787 21.7216C213.215 21.4945 213.429 21.1917 213.429 20.8132C213.429 20.4599 213.278 20.1823 212.976 19.9804C212.673 19.7786 212.17 19.6145 211.465 19.4884L210.332 19.2612C208.141 18.8323 206.505 18.1635 205.422 17.2551C204.364 16.3214 203.836 14.9966 203.836 13.2807C203.836 12.347 204.037 11.5016 204.44 10.7446C204.843 9.98758 205.409 9.35672 206.139 8.85203C206.87 8.34734 207.738 7.9562 208.745 7.67862C209.778 7.40104 210.911 7.26225 212.145 7.26225C213.076 7.26225 213.945 7.33796 214.751 7.48936C215.582 7.61553 216.299 7.81741 216.903 8.09499C217.508 8.37257 217.986 8.73847 218.339 9.19269C218.691 9.62168 218.867 10.139 218.867 10.7446C218.867 11.325 218.754 11.8297 218.527 12.2587C218.326 12.6624 218.062 13.0031 217.734 13.2807C217.533 13.1545 217.231 13.0283 216.828 12.9022C216.425 12.7508 215.984 12.6246 215.506 12.5236C215.028 12.3975 214.537 12.2965 214.033 12.2208C213.555 12.1451 213.114 12.1073 212.711 12.1073C211.88 12.1073 211.238 12.2082 210.785 12.4101C210.332 12.5867 210.105 12.8769 210.105 13.2807C210.105 13.5583 210.231 13.7854 210.483 13.962C210.735 14.1386 211.213 14.3027 211.918 14.4541L213.089 14.719C215.506 15.2742 217.218 16.0439 218.225 17.028C219.258 17.9869 219.774 19.236 219.774 20.7753Z" fill="#ffffff"/>
</svg>
